<svg xmlns="http://www.w3.org/2000/svg" viewBox="0 0 512 512" role="img" aria-label="牛顿头像">
  <rect width="512" height="512" rx="96" fill="#f6f6f3"/>
  <g fill="#111111">
    <circle cx="189" cy="144" r="26"/>
    <circle cx="166" cy="185" r="30"/>
    <circle cx="171" cy="234" r="28"/>
    <circle cx="202" cy="110" r="24"/>
    <circle cx="248" cy="94" r="25"/>
    <circle cx="302" cy="110" r="24"/>
    <circle cx="338" cy="144" r="26"/>
    <circle cx="362" cy="188" r="30"/>
    <circle cx="357" cy="236" r="28"/>
    <path d="M178 190c0-76 31-116 78-116s78 40 78 116c0 71-32 128-78 128s-78-57-78-128z"/>
    <path d="M142 414c20-61 64-99 114-99s94 38 114 99c5 16-7 32-24 32H166c-17 0-29-16-24-32z"/>
    <path d="M203 302h106l18 102H185l18-102z"/>
  </g>
  <g fill="#f6f6f3">
    <path d="M221 177c8-8 21-8 30 0-10 8-21 8-30 0z"/>
    <path d="M263 177c8-8 21-8 30 0-10 8-21 8-30 0z"/>
    <path d="M247 193c-7 28-5 45 9 55 11-7 15-17 12-31-9 8-16 4-21-24z"/>
    <path d="M222 266c23 17 45 17 68 0-5 24-63 24-68 0z"/>
    <path d="M211 340l45 39 45-39-15 80h-60l-15-80z"/>
    <path d="M174 418c16-32 40-56 67-72l-15 74h-52z"/>
    <path d="M338 418c-16-32-40-56-67-72l15 74h52z"/>
  </g>
  <g fill="none" stroke="#111111" stroke-linecap="round" stroke-linejoin="round">
    <path d="M208 149c29-22 67-22 96 0" stroke-width="16"/>
    <path d="M222 213c-13 5-27 5-39 0" stroke-width="12"/>
    <path d="M329 213c-12 5-26 5-39 0" stroke-width="12"/>
    <path d="M214 132c17-16 31-26 42-30 11 4 25 14 42 30" stroke-width="12"/>
    <path d="M190 343c38 34 94 34 132 0" stroke-width="14"/>
  </g>
</svg>
